<?xml version="1.0" standalone="no"?>
<!DOCTYPE svg PUBLIC "-//W3C//DTD SVG 20010904//EN"
 "http://www.w3.org/TR/2001/REC-SVG-20010904/DTD/svg10.dtd">
<svg version="1.0" xmlns="http://www.w3.org/2000/svg"
 width="512.000000pt" height="512.000000pt" viewBox="0 0 512.000000 512.000000"
 preserveAspectRatio="xMidYMid meet">
<metadata>
Created by potrace 1.14, written by Peter Selinger 2001-2017
</metadata>
<g transform="translate(0.000000,512.000000) scale(0.100000,-0.100000)"
fill="#000000" stroke="none">
<path d="M2305 4818 c-319 -36 -676 -160 -945 -328 -265 -165 -507 -397 -678
-648 l-56 -83 717 -717 717 -717 402 401 c360 359 408 403 452 418 150 49 298
-14 361 -155 24 -54 27 -71 23 -129 -4 -47 -13 -82 -32 -117 -37 -67 -1023
-1051 -1081 -1079 -56 -27 -194 -27 -250 0 -27 13 -290 268 -793 770 -414 413
-756 752 -761 754 -9 3 -42 -127 -68 -268 -14 -75 -18 -151 -18 -355 0 -286
14 -401 75 -619 250 -890 1016 -1540 1939 -1646 137 -16 496 -8 616 14 334 61
625 175 884 347 531 352 878 884 993 1519 20 109 23 158 23 380 -1 196 -5 278
-18 355 -68 388 -213 721 -444 1027 -373 490 -943 810 -1565 877 -114 13 -379
12 -493 -1z"/>
</g>
</svg>
