<svg width="16" height="16" viewBox="0 0 16 16" fill="none" xmlns="http://www.w3.org/2000/svg">
<path fill-rule="evenodd" clip-rule="evenodd" d="M8 16C12.4183 16 16 12.4183 16 8C16 3.58172 12.4183 0 8 0C5.12853 0 2.6104 1.51285 1.19919 3.78497L6.24263 8.82842L8.89092 6.18013C9.28144 5.78961 9.91461 5.78961 10.3051 6.18013C10.6957 6.57065 10.6957 7.20382 10.3051 7.59434L6.94981 10.9497C6.55929 11.3402 5.92612 11.3402 5.5356 10.9497C5.50667 10.9207 5.47989 10.8905 5.45524 10.8591C5.4236 10.8343 5.3931 10.8073 5.36396 10.7782L0.324162 5.73838C0.113195 6.45553 0 7.21455 0 8C0 12.4183 3.58172 16 8 16Z" fill="url(#paint0_linear_24_3)"/>
<defs>
<linearGradient id="paint0_linear_24_3" x1="2.5" y1="14" x2="10.5" y2="-9" gradientUnits="userSpaceOnUse">
<stop stop-color="white"/>
<stop offset="1" stop-color="#9DE6A7"/>
</linearGradient>
</defs>
</svg>
