<svg width="17" height="16" viewBox="0 0 17 16" fill="none" xmlns="http://www.w3.org/2000/svg">
<circle cx="9" cy="8" r="8" fill="url(#paint0_linear_204_5)"/>
<path d="M7.77817 9.36396C8.1687 9.75449 8.1687 10.3877 7.77817 10.7782V10.7782C7.38765 11.1687 6.75449 11.1687 6.36396 10.7782L0.707107 5.12132C0.316583 4.7308 0.316582 4.09763 0.707107 3.70711V3.70711C1.09763 3.31658 1.7308 3.31658 2.12132 3.70711L7.77817 9.36396Z" fill="white"/>
<path d="M9.89092 6.18013C10.2814 5.78961 10.9146 5.7896 11.3051 6.18013V6.18013C11.6957 6.57065 11.6957 7.20382 11.3051 7.59434L7.94981 10.9497C7.55929 11.3402 6.92612 11.3402 6.5356 10.9497V10.9497C6.14507 10.5591 6.14507 9.92597 6.5356 9.53545L9.89092 6.18013Z" fill="white"/>
<defs>
<linearGradient id="paint0_linear_204_5" x1="3.5" y1="14" x2="11.5" y2="-9" gradientUnits="userSpaceOnUse">
<stop stop-color="#357A38"/>
<stop offset="1" stop-color="#6FBF73"/>
</linearGradient>
</defs>
</svg>
