<svg width="63" height="18" viewBox="0 0 63 18" fill="none" xmlns="http://www.w3.org/2000/svg">
<circle cx="9" cy="9" r="8" fill="url(#paint0_linear_204_11)"/>
<path d="M7.77817 10.364C8.1687 10.7545 8.1687 11.3877 7.77817 11.7782C7.38765 12.1687 6.75449 12.1687 6.36396 11.7782L0.707107 6.12132C0.316583 5.7308 0.316582 5.09763 0.707107 4.70711C1.09763 4.31658 1.7308 4.31658 2.12132 4.70711L7.77817 10.364Z" fill="white"/>
<path d="M9.89092 7.18013C10.2814 6.78961 10.9146 6.7896 11.3051 7.18013C11.6957 7.57065 11.6957 8.20382 11.3051 8.59434L7.94981 11.9497C7.55929 12.3402 6.92612 12.3402 6.5356 11.9497C6.14507 11.5591 6.14507 10.926 6.5356 10.5354L9.89092 7.18013Z" fill="white"/>
<path d="M26.3027 14.123C25.4746 14.123 24.7539 13.9512 24.1406 13.6074C23.5273 13.2598 23.0527 12.7695 22.7168 12.1367C22.3848 11.5 22.2188 10.748 22.2188 9.88086V9.59375C22.2188 8.76562 22.3789 8.0332 22.6992 7.39648C23.0234 6.75586 23.4844 6.25391 24.082 5.89062C24.6797 5.52734 25.3906 5.3457 26.2148 5.3457C26.793 5.3457 27.334 5.42773 27.8379 5.5918C28.3457 5.75586 28.7988 6.00586 29.1973 6.3418V8.4043H27.9258L27.75 7.10938C27.6211 7.01562 27.4805 6.93555 27.3281 6.86914C27.1758 6.80273 27.0098 6.75195 26.8301 6.7168C26.6543 6.68164 26.4629 6.66406 26.2559 6.66406C25.7715 6.66406 25.3555 6.7832 25.0078 7.02148C24.6602 7.25977 24.3926 7.59766 24.2051 8.03516C24.0215 8.46875 23.9297 8.98438 23.9297 9.58203V9.88086C23.9297 10.4785 24.0273 10.9961 24.2227 11.4336C24.418 11.8711 24.6953 12.2109 25.0547 12.4531C25.4141 12.6914 25.8398 12.8105 26.332 12.8105C26.5781 12.8105 26.8242 12.7832 27.0703 12.7285C27.3203 12.6699 27.5469 12.5957 27.75 12.5059L27.9258 11.3047H29.1973V13.3438C28.8652 13.5625 28.4512 13.748 27.9551 13.9004C27.459 14.0488 26.9082 14.123 26.3027 14.123ZM29.9355 14V12.9746L30.7617 12.7988V6.06641L29.8477 5.89062V4.85938H32.4727V12.7988L33.2988 12.9746V14H29.9355ZM35.9824 14.123C35.3535 14.123 34.8535 13.9551 34.4824 13.6191C34.1113 13.2793 33.9258 12.8184 33.9258 12.2363C33.9258 11.8379 34.0332 11.4883 34.248 11.1875C34.4668 10.8867 34.7871 10.6504 35.209 10.4785C35.6348 10.3066 36.1582 10.2207 36.7793 10.2207H37.6172V9.75195C37.6172 9.44727 37.5273 9.20117 37.3477 9.01367C37.1719 8.82227 36.9062 8.72656 36.5508 8.72656C36.3672 8.72656 36.2031 8.75 36.0586 8.79688C35.9141 8.83984 35.7812 8.90234 35.6602 8.98438L35.5254 9.82227H34.2949L34.2715 8.17578C34.6035 7.98828 34.9629 7.83594 35.3496 7.71875C35.7363 7.60156 36.168 7.54297 36.6445 7.54297C37.4727 7.54297 38.127 7.73633 38.6074 8.12305C39.0879 8.50586 39.3281 9.05469 39.3281 9.76953V12.3828C39.3281 12.4688 39.3281 12.5547 39.3281 12.6406C39.332 12.7227 39.3398 12.8027 39.3516 12.8809L40.0137 12.9746V14H37.8926C37.8496 13.8906 37.8066 13.7734 37.7637 13.6484C37.7207 13.5234 37.6895 13.3984 37.6699 13.2734C37.4668 13.5312 37.2266 13.7383 36.9492 13.8945C36.6758 14.0469 36.3535 14.123 35.9824 14.123ZM36.4395 12.8574C36.6777 12.8574 36.9043 12.8047 37.1191 12.6992C37.334 12.5898 37.5 12.4473 37.6172 12.2715V11.2695H36.7734C36.3984 11.2695 36.1133 11.3555 35.918 11.5273C35.7266 11.6992 35.6309 11.9062 35.6309 12.1484C35.6309 12.375 35.7012 12.5508 35.8418 12.6758C35.9863 12.7969 36.1855 12.8574 36.4395 12.8574ZM43.3418 14.123C42.8691 14.123 42.4277 14.0781 42.0176 13.9883C41.6113 13.8984 41.2207 13.7695 40.8457 13.6016L40.8281 11.8086H42.0176L42.2461 12.7227C42.3789 12.7891 42.5234 12.8418 42.6797 12.8809C42.8398 12.9199 43.0215 12.9395 43.2246 12.9395C43.6074 12.9395 43.877 12.877 44.0332 12.752C44.1895 12.627 44.2676 12.4707 44.2676 12.2832C44.2676 12.1074 44.1836 11.9531 44.0156 11.8203C43.8516 11.6836 43.5215 11.5645 43.0254 11.4629C42.2754 11.3066 41.7227 11.0645 41.3672 10.7363C41.0117 10.4082 40.834 9.98828 40.834 9.47656C40.834 9.125 40.9219 8.80469 41.0977 8.51562C41.2773 8.22656 41.5488 7.99414 41.9121 7.81836C42.2793 7.64258 42.748 7.55469 43.3184 7.55469C43.7949 7.55469 44.2305 7.60156 44.625 7.69531C45.0234 7.78516 45.3574 7.9043 45.627 8.05273L45.6445 9.78711H44.4609L44.2793 8.95508C44.1738 8.87695 44.0488 8.81836 43.9043 8.7793C43.7637 8.74023 43.6035 8.7207 43.4238 8.7207C43.123 8.7207 42.8926 8.78125 42.7324 8.90234C42.5723 9.02344 42.4922 9.17969 42.4922 9.37109C42.4922 9.48047 42.5195 9.58203 42.5742 9.67578C42.6328 9.76953 42.7461 9.85742 42.9141 9.93945C43.082 10.0215 43.3262 10.0996 43.6465 10.1738C44.4316 10.3535 45.0039 10.5938 45.3633 10.8945C45.7227 11.1914 45.9023 11.6094 45.9023 12.1484C45.9023 12.7383 45.6875 13.2148 45.2578 13.5781C44.832 13.9414 44.1934 14.123 43.3418 14.123ZM49.4004 14.123C48.9277 14.123 48.4863 14.0781 48.0762 13.9883C47.6699 13.8984 47.2793 13.7695 46.9043 13.6016L46.8867 11.8086H48.0762L48.3047 12.7227C48.4375 12.7891 48.582 12.8418 48.7383 12.8809C48.8984 12.9199 49.0801 12.9395 49.2832 12.9395C49.666 12.9395 49.9355 12.877 50.0918 12.752C50.248 12.627 50.3262 12.4707 50.3262 12.2832C50.3262 12.1074 50.2422 11.9531 50.0742 11.8203C49.9102 11.6836 49.5801 11.5645 49.084 11.4629C48.334 11.3066 47.7812 11.0645 47.4258 10.7363C47.0703 10.4082 46.8926 9.98828 46.8926 9.47656C46.8926 9.125 46.9805 8.80469 47.1562 8.51562C47.3359 8.22656 47.6074 7.99414 47.9707 7.81836C48.3379 7.64258 48.8066 7.55469 49.377 7.55469C49.8535 7.55469 50.2891 7.60156 50.6836 7.69531C51.082 7.78516 51.416 7.9043 51.6855 8.05273L51.7031 9.78711H50.5195L50.3379 8.95508C50.2324 8.87695 50.1074 8.81836 49.9629 8.7793C49.8223 8.74023 49.6621 8.7207 49.4824 8.7207C49.1816 8.7207 48.9512 8.78125 48.791 8.90234C48.6309 9.02344 48.5508 9.17969 48.5508 9.37109C48.5508 9.48047 48.5781 9.58203 48.6328 9.67578C48.6914 9.76953 48.8047 9.85742 48.9727 9.93945C49.1406 10.0215 49.3848 10.0996 49.7051 10.1738C50.4902 10.3535 51.0625 10.5938 51.4219 10.8945C51.7812 11.1914 51.9609 11.6094 51.9609 12.1484C51.9609 12.7383 51.7461 13.2148 51.3164 13.5781C50.8906 13.9414 50.252 14.123 49.4004 14.123ZM52.6875 14V12.9746L53.5137 12.7988V8.86719L52.5996 8.69141V7.66016H55.2246V12.7988L56.0449 12.9746V14H52.6875ZM53.4551 6.31836V4.85938H55.2246V6.31836H53.4551ZM59.6016 14.123C58.9922 14.123 58.4648 13.9863 58.0195 13.7129C57.5781 13.4395 57.2383 13.0625 57 12.582C56.7617 12.0977 56.6426 11.5449 56.6426 10.9238V10.748C56.6426 10.123 56.7637 9.57031 57.0059 9.08984C57.248 8.60938 57.5898 8.23242 58.0312 7.95898C58.4727 7.68164 58.9922 7.54297 59.5898 7.54297C60.1602 7.54297 60.6504 7.63281 61.0605 7.8125C61.4746 7.98828 61.8105 8.19336 62.0684 8.42773L62.0566 10.2441H60.7676L60.5391 9.11328C60.4453 9.01953 60.3262 8.94336 60.1816 8.88477C60.0371 8.82617 59.8906 8.79688 59.7422 8.79688C59.4297 8.79688 59.1699 8.875 58.9629 9.03125C58.7598 9.1875 58.6074 9.41016 58.5059 9.69922C58.4043 9.98828 58.3535 10.3379 58.3535 10.748V10.9238C58.3535 11.3574 58.4102 11.7148 58.5234 11.9961C58.6367 12.2734 58.7871 12.4785 58.9746 12.6113C59.166 12.7441 59.3789 12.8105 59.6133 12.8105C59.9141 12.8105 60.1543 12.7324 60.334 12.5762C60.5176 12.416 60.6426 12.1914 60.709 11.9023H62.1738L62.1914 11.9375C62.125 12.3867 61.9922 12.7754 61.793 13.1035C61.5977 13.4316 61.3203 13.6836 60.9609 13.8594C60.6055 14.0352 60.1523 14.123 59.6016 14.123Z" fill="white"/>
<path fill-rule="evenodd" clip-rule="evenodd" d="M54.1668 5.87706L54.1103 5.83943L54.1905 5.71917L54.2469 5.7568C54.3198 5.80535 54.4146 5.80535 54.4874 5.7568L54.5439 5.71917L54.6241 5.83943L54.5676 5.87706C54.4462 5.95797 54.2881 5.95797 54.1668 5.87706Z" fill="#C6C6C6"/>
<path d="M54.9453 5.41797C54.9453 5.49779 54.8806 5.5625 54.8008 5.5625C54.721 5.5625 54.6562 5.49779 54.6562 5.41797C54.6562 5.33815 54.721 5.27344 54.8008 5.27344C54.8806 5.27344 54.9453 5.33815 54.9453 5.41797Z" fill="#C6C6C6"/>
<path d="M54.2227 5.41797C54.2227 5.49779 54.1579 5.5625 54.0781 5.5625C53.9983 5.5625 53.9336 5.49779 53.9336 5.41797C53.9336 5.33815 53.9983 5.27344 54.0781 5.27344C54.1579 5.27344 54.2227 5.33815 54.2227 5.41797Z" fill="#C6C6C6"/>
<defs>
<linearGradient id="paint0_linear_204_11" x1="3.5" y1="15" x2="11.5" y2="-8" gradientUnits="userSpaceOnUse">
<stop stop-color="#357A38"/>
<stop offset="1" stop-color="#6FBF73"/>
</linearGradient>
</defs>
</svg>
