<svg width="63" height="16" viewBox="0 0 63 16" fill="none" xmlns="http://www.w3.org/2000/svg">
<circle cx="9" cy="8" r="8" fill="url(#paint0_linear_204_11)"/>
<path d="M7.77817 9.36396C8.1687 9.75449 8.1687 10.3877 7.77817 10.7782V10.7782C7.38765 11.1687 6.75449 11.1687 6.36396 10.7782L0.707107 5.12132C0.316583 4.7308 0.316582 4.09763 0.707107 3.70711V3.70711C1.09763 3.31658 1.7308 3.31658 2.12132 3.70711L7.77817 9.36396Z" fill="white"/>
<path d="M9.89092 6.18013C10.2814 5.78961 10.9146 5.7896 11.3051 6.18013V6.18013C11.6957 6.57065 11.6957 7.20382 11.3051 7.59434L7.94981 10.9497C7.55929 11.3402 6.92612 11.3402 6.5356 10.9497V10.9497C6.14507 10.5591 6.14507 9.92597 6.5356 9.53545L9.89092 6.18013Z" fill="white"/>
<path d="M26.3887 13.123C25.5605 13.123 24.8398 12.9512 24.2266 12.6074C23.6133 12.2598 23.1387 11.7695 22.8027 11.1367C22.4707 10.5 22.3047 9.74805 22.3047 8.88086V8.59375C22.3047 7.76562 22.4648 7.0332 22.7852 6.39648C23.1094 5.75586 23.5703 5.25391 24.168 4.89062C24.7656 4.52734 25.4766 4.3457 26.3008 4.3457C26.8789 4.3457 27.4199 4.42773 27.9238 4.5918C28.4316 4.75586 28.8848 5.00586 29.2832 5.3418V7.4043H28.0117L27.8359 6.10938C27.707 6.01562 27.5664 5.93555 27.4141 5.86914C27.2617 5.80273 27.0957 5.75195 26.916 5.7168C26.7402 5.68164 26.5488 5.66406 26.3418 5.66406C25.8574 5.66406 25.4414 5.7832 25.0938 6.02148C24.7461 6.25977 24.4785 6.59766 24.291 7.03516C24.1074 7.46875 24.0156 7.98438 24.0156 8.58203V8.88086C24.0156 9.47852 24.1133 9.99609 24.3086 10.4336C24.5039 10.8711 24.7812 11.2109 25.1406 11.4531C25.5 11.6914 25.9258 11.8105 26.418 11.8105C26.6641 11.8105 26.9102 11.7832 27.1562 11.7285C27.4062 11.6699 27.6328 11.5957 27.8359 11.5059L28.0117 10.3047H29.2832V12.3438C28.9512 12.5625 28.5371 12.748 28.041 12.9004C27.5449 13.0488 26.9941 13.123 26.3887 13.123ZM30.0215 13V11.9746L30.8477 11.7988V5.06641L29.9336 4.89062V3.85938H32.5586V11.7988L33.3848 11.9746V13H30.0215ZM36.0684 13.123C35.4395 13.123 34.9395 12.9551 34.5684 12.6191C34.1973 12.2793 34.0117 11.8184 34.0117 11.2363C34.0117 10.8379 34.1191 10.4883 34.334 10.1875C34.5527 9.88672 34.873 9.65039 35.2949 9.47852C35.7207 9.30664 36.2441 9.2207 36.8652 9.2207H37.7031V8.75195C37.7031 8.44727 37.6133 8.20117 37.4336 8.01367C37.2578 7.82227 36.9922 7.72656 36.6367 7.72656C36.4531 7.72656 36.2891 7.75 36.1445 7.79688C36 7.83984 35.8672 7.90234 35.7461 7.98438L35.6113 8.82227H34.3809L34.3574 7.17578C34.6895 6.98828 35.0488 6.83594 35.4355 6.71875C35.8223 6.60156 36.2539 6.54297 36.7305 6.54297C37.5586 6.54297 38.2129 6.73633 38.6934 7.12305C39.1738 7.50586 39.4141 8.05469 39.4141 8.76953V11.3828C39.4141 11.4688 39.4141 11.5547 39.4141 11.6406C39.418 11.7227 39.4258 11.8027 39.4375 11.8809L40.0996 11.9746V13H37.9785C37.9355 12.8906 37.8926 12.7734 37.8496 12.6484C37.8066 12.5234 37.7754 12.3984 37.7559 12.2734C37.5527 12.5312 37.3125 12.7383 37.0352 12.8945C36.7617 13.0469 36.4395 13.123 36.0684 13.123ZM36.5254 11.8574C36.7637 11.8574 36.9902 11.8047 37.2051 11.6992C37.4199 11.5898 37.5859 11.4473 37.7031 11.2715V10.2695H36.8594C36.4844 10.2695 36.1992 10.3555 36.0039 10.5273C35.8125 10.6992 35.7168 10.9062 35.7168 11.1484C35.7168 11.375 35.7871 11.5508 35.9277 11.6758C36.0723 11.7969 36.2715 11.8574 36.5254 11.8574ZM43.4277 13.123C42.9551 13.123 42.5137 13.0781 42.1035 12.9883C41.6973 12.8984 41.3066 12.7695 40.9316 12.6016L40.9141 10.8086H42.1035L42.332 11.7227C42.4648 11.7891 42.6094 11.8418 42.7656 11.8809C42.9258 11.9199 43.1074 11.9395 43.3105 11.9395C43.6934 11.9395 43.9629 11.877 44.1191 11.752C44.2754 11.627 44.3535 11.4707 44.3535 11.2832C44.3535 11.1074 44.2695 10.9531 44.1016 10.8203C43.9375 10.6836 43.6074 10.5645 43.1113 10.4629C42.3613 10.3066 41.8086 10.0645 41.4531 9.73633C41.0977 9.4082 40.9199 8.98828 40.9199 8.47656C40.9199 8.125 41.0078 7.80469 41.1836 7.51562C41.3633 7.22656 41.6348 6.99414 41.998 6.81836C42.3652 6.64258 42.834 6.55469 43.4043 6.55469C43.8809 6.55469 44.3164 6.60156 44.7109 6.69531C45.1094 6.78516 45.4434 6.9043 45.7129 7.05273L45.7305 8.78711H44.5469L44.3652 7.95508C44.2598 7.87695 44.1348 7.81836 43.9902 7.7793C43.8496 7.74023 43.6895 7.7207 43.5098 7.7207C43.209 7.7207 42.9785 7.78125 42.8184 7.90234C42.6582 8.02344 42.5781 8.17969 42.5781 8.37109C42.5781 8.48047 42.6055 8.58203 42.6602 8.67578C42.7188 8.76953 42.832 8.85742 43 8.93945C43.168 9.02148 43.4121 9.09961 43.7324 9.17383C44.5176 9.35352 45.0898 9.59375 45.4492 9.89453C45.8086 10.1914 45.9883 10.6094 45.9883 11.1484C45.9883 11.7383 45.7734 12.2148 45.3438 12.5781C44.918 12.9414 44.2793 13.123 43.4277 13.123ZM49.4863 13.123C49.0137 13.123 48.5723 13.0781 48.1621 12.9883C47.7559 12.8984 47.3652 12.7695 46.9902 12.6016L46.9727 10.8086H48.1621L48.3906 11.7227C48.5234 11.7891 48.668 11.8418 48.8242 11.8809C48.9844 11.9199 49.166 11.9395 49.3691 11.9395C49.752 11.9395 50.0215 11.877 50.1777 11.752C50.334 11.627 50.4121 11.4707 50.4121 11.2832C50.4121 11.1074 50.3281 10.9531 50.1602 10.8203C49.9961 10.6836 49.666 10.5645 49.1699 10.4629C48.4199 10.3066 47.8672 10.0645 47.5117 9.73633C47.1562 9.4082 46.9785 8.98828 46.9785 8.47656C46.9785 8.125 47.0664 7.80469 47.2422 7.51562C47.4219 7.22656 47.6934 6.99414 48.0566 6.81836C48.4238 6.64258 48.8926 6.55469 49.4629 6.55469C49.9395 6.55469 50.375 6.60156 50.7695 6.69531C51.168 6.78516 51.502 6.9043 51.7715 7.05273L51.7891 8.78711H50.6055L50.4238 7.95508C50.3184 7.87695 50.1934 7.81836 50.0488 7.7793C49.9082 7.74023 49.748 7.7207 49.5684 7.7207C49.2676 7.7207 49.0371 7.78125 48.877 7.90234C48.7168 8.02344 48.6367 8.17969 48.6367 8.37109C48.6367 8.48047 48.6641 8.58203 48.7188 8.67578C48.7773 8.76953 48.8906 8.85742 49.0586 8.93945C49.2266 9.02148 49.4707 9.09961 49.791 9.17383C50.5762 9.35352 51.1484 9.59375 51.5078 9.89453C51.8672 10.1914 52.0469 10.6094 52.0469 11.1484C52.0469 11.7383 51.832 12.2148 51.4023 12.5781C50.9766 12.9414 50.3379 13.123 49.4863 13.123ZM52.7734 13V11.9746L53.5996 11.7988V7.86719L52.6855 7.69141V6.66016H55.3105V11.7988L56.1309 11.9746V13H52.7734ZM53.541 5.31836V3.85938H55.3105V5.31836H53.541ZM59.6875 13.123C59.0781 13.123 58.5508 12.9863 58.1055 12.7129C57.6641 12.4395 57.3242 12.0625 57.0859 11.582C56.8477 11.0977 56.7285 10.5449 56.7285 9.92383V9.74805C56.7285 9.12305 56.8496 8.57031 57.0918 8.08984C57.334 7.60938 57.6758 7.23242 58.1172 6.95898C58.5586 6.68164 59.0781 6.54297 59.6758 6.54297C60.2461 6.54297 60.7363 6.63281 61.1465 6.8125C61.5605 6.98828 61.8965 7.19336 62.1543 7.42773L62.1426 9.24414H60.8535L60.625 8.11328C60.5312 8.01953 60.4121 7.94336 60.2676 7.88477C60.123 7.82617 59.9766 7.79688 59.8281 7.79688C59.5156 7.79688 59.2559 7.875 59.0488 8.03125C58.8457 8.1875 58.6934 8.41016 58.5918 8.69922C58.4902 8.98828 58.4395 9.33789 58.4395 9.74805V9.92383C58.4395 10.3574 58.4961 10.7148 58.6094 10.9961C58.7227 11.2734 58.873 11.4785 59.0605 11.6113C59.252 11.7441 59.4648 11.8105 59.6992 11.8105C60 11.8105 60.2402 11.7324 60.4199 11.5762C60.6035 11.416 60.7285 11.1914 60.7949 10.9023H62.2598L62.2773 10.9375C62.2109 11.3867 62.0781 11.7754 61.8789 12.1035C61.6836 12.4316 61.4062 12.6836 61.0469 12.8594C60.6914 13.0352 60.2383 13.123 59.6875 13.123Z" fill="white"/>
<defs>
<linearGradient id="paint0_linear_204_11" x1="3.5" y1="14" x2="11.5" y2="-9" gradientUnits="userSpaceOnUse">
<stop stop-color="#357A38"/>
<stop offset="1" stop-color="#6FBF73"/>
</linearGradient>
</defs>
</svg>
