<svg width="41" height="11" viewBox="0 0 41 11" fill="none" xmlns="http://www.w3.org/2000/svg">
<path d="M4.38867 10.123C3.56055 10.123 2.83984 9.95117 2.22656 9.60742C1.61328 9.25977 1.13867 8.76953 0.802734 8.13672C0.470703 7.5 0.304688 6.74805 0.304688 5.88086V5.59375C0.304688 4.76562 0.464844 4.0332 0.785156 3.39648C1.10938 2.75586 1.57031 2.25391 2.16797 1.89062C2.76562 1.52734 3.47656 1.3457 4.30078 1.3457C4.87891 1.3457 5.41992 1.42773 5.92383 1.5918C6.43164 1.75586 6.88477 2.00586 7.2832 2.3418V4.4043H6.01172L5.83594 3.10938C5.70703 3.01562 5.56641 2.93555 5.41406 2.86914C5.26172 2.80273 5.0957 2.75195 4.91602 2.7168C4.74023 2.68164 4.54883 2.66406 4.3418 2.66406C3.85742 2.66406 3.44141 2.7832 3.09375 3.02148C2.74609 3.25977 2.47852 3.59766 2.29102 4.03516C2.10742 4.46875 2.01562 4.98438 2.01562 5.58203V5.88086C2.01562 6.47852 2.11328 6.99609 2.30859 7.43359C2.50391 7.87109 2.78125 8.21094 3.14062 8.45312C3.5 8.69141 3.92578 8.81055 4.41797 8.81055C4.66406 8.81055 4.91016 8.7832 5.15625 8.72852C5.40625 8.66992 5.63281 8.5957 5.83594 8.50586L6.01172 7.30469H7.2832V9.34375C6.95117 9.5625 6.53711 9.74805 6.04102 9.90039C5.54492 10.0488 4.99414 10.123 4.38867 10.123ZM8.02148 10V8.97461L8.84766 8.79883V2.06641L7.93359 1.89062V0.859375H10.5586V8.79883L11.3848 8.97461V10H8.02148ZM14.0684 10.123C13.4395 10.123 12.9395 9.95508 12.5684 9.61914C12.1973 9.2793 12.0117 8.81836 12.0117 8.23633C12.0117 7.83789 12.1191 7.48828 12.334 7.1875C12.5527 6.88672 12.873 6.65039 13.2949 6.47852C13.7207 6.30664 14.2441 6.2207 14.8652 6.2207H15.7031V5.75195C15.7031 5.44727 15.6133 5.20117 15.4336 5.01367C15.2578 4.82227 14.9922 4.72656 14.6367 4.72656C14.4531 4.72656 14.2891 4.75 14.1445 4.79688C14 4.83984 13.8672 4.90234 13.7461 4.98438L13.6113 5.82227H12.3809L12.3574 4.17578C12.6895 3.98828 13.0488 3.83594 13.4355 3.71875C13.8223 3.60156 14.2539 3.54297 14.7305 3.54297C15.5586 3.54297 16.2129 3.73633 16.6934 4.12305C17.1738 4.50586 17.4141 5.05469 17.4141 5.76953V8.38281C17.4141 8.46875 17.4141 8.55469 17.4141 8.64062C17.418 8.72266 17.4258 8.80273 17.4375 8.88086L18.0996 8.97461V10H15.9785C15.9355 9.89062 15.8926 9.77344 15.8496 9.64844C15.8066 9.52344 15.7754 9.39844 15.7559 9.27344C15.5527 9.53125 15.3125 9.73828 15.0352 9.89453C14.7617 10.0469 14.4395 10.123 14.0684 10.123ZM14.5254 8.85742C14.7637 8.85742 14.9902 8.80469 15.2051 8.69922C15.4199 8.58984 15.5859 8.44727 15.7031 8.27148V7.26953H14.8594C14.4844 7.26953 14.1992 7.35547 14.0039 7.52734C13.8125 7.69922 13.7168 7.90625 13.7168 8.14844C13.7168 8.375 13.7871 8.55078 13.9277 8.67578C14.0723 8.79688 14.2715 8.85742 14.5254 8.85742ZM21.4277 10.123C20.9551 10.123 20.5137 10.0781 20.1035 9.98828C19.6973 9.89844 19.3066 9.76953 18.9316 9.60156L18.9141 7.80859H20.1035L20.332 8.72266C20.4648 8.78906 20.6094 8.8418 20.7656 8.88086C20.9258 8.91992 21.1074 8.93945 21.3105 8.93945C21.6934 8.93945 21.9629 8.87695 22.1191 8.75195C22.2754 8.62695 22.3535 8.4707 22.3535 8.2832C22.3535 8.10742 22.2695 7.95312 22.1016 7.82031C21.9375 7.68359 21.6074 7.56445 21.1113 7.46289C20.3613 7.30664 19.8086 7.06445 19.4531 6.73633C19.0977 6.4082 18.9199 5.98828 18.9199 5.47656C18.9199 5.125 19.0078 4.80469 19.1836 4.51562C19.3633 4.22656 19.6348 3.99414 19.998 3.81836C20.3652 3.64258 20.834 3.55469 21.4043 3.55469C21.8809 3.55469 22.3164 3.60156 22.7109 3.69531C23.1094 3.78516 23.4434 3.9043 23.7129 4.05273L23.7305 5.78711H22.5469L22.3652 4.95508C22.2598 4.87695 22.1348 4.81836 21.9902 4.7793C21.8496 4.74023 21.6895 4.7207 21.5098 4.7207C21.209 4.7207 20.9785 4.78125 20.8184 4.90234C20.6582 5.02344 20.5781 5.17969 20.5781 5.37109C20.5781 5.48047 20.6055 5.58203 20.6602 5.67578C20.7188 5.76953 20.832 5.85742 21 5.93945C21.168 6.02148 21.4121 6.09961 21.7324 6.17383C22.5176 6.35352 23.0898 6.59375 23.4492 6.89453C23.8086 7.19141 23.9883 7.60938 23.9883 8.14844C23.9883 8.73828 23.7734 9.21484 23.3438 9.57812C22.918 9.94141 22.2793 10.123 21.4277 10.123ZM27.4863 10.123C27.0137 10.123 26.5723 10.0781 26.1621 9.98828C25.7559 9.89844 25.3652 9.76953 24.9902 9.60156L24.9727 7.80859H26.1621L26.3906 8.72266C26.5234 8.78906 26.668 8.8418 26.8242 8.88086C26.9844 8.91992 27.166 8.93945 27.3691 8.93945C27.752 8.93945 28.0215 8.87695 28.1777 8.75195C28.334 8.62695 28.4121 8.4707 28.4121 8.2832C28.4121 8.10742 28.3281 7.95312 28.1602 7.82031C27.9961 7.68359 27.666 7.56445 27.1699 7.46289C26.4199 7.30664 25.8672 7.06445 25.5117 6.73633C25.1562 6.4082 24.9785 5.98828 24.9785 5.47656C24.9785 5.125 25.0664 4.80469 25.2422 4.51562C25.4219 4.22656 25.6934 3.99414 26.0566 3.81836C26.4238 3.64258 26.8926 3.55469 27.4629 3.55469C27.9395 3.55469 28.375 3.60156 28.7695 3.69531C29.168 3.78516 29.502 3.9043 29.7715 4.05273L29.7891 5.78711H28.6055L28.4238 4.95508C28.3184 4.87695 28.1934 4.81836 28.0488 4.7793C27.9082 4.74023 27.748 4.7207 27.5684 4.7207C27.2676 4.7207 27.0371 4.78125 26.877 4.90234C26.7168 5.02344 26.6367 5.17969 26.6367 5.37109C26.6367 5.48047 26.6641 5.58203 26.7188 5.67578C26.7773 5.76953 26.8906 5.85742 27.0586 5.93945C27.2266 6.02148 27.4707 6.09961 27.791 6.17383C28.5762 6.35352 29.1484 6.59375 29.5078 6.89453C29.8672 7.19141 30.0469 7.60938 30.0469 8.14844C30.0469 8.73828 29.832 9.21484 29.4023 9.57812C28.9766 9.94141 28.3379 10.123 27.4863 10.123ZM30.7734 10V8.97461L31.5996 8.79883V4.86719L30.6855 4.69141V3.66016H33.3105V8.79883L34.1309 8.97461V10H30.7734ZM31.541 2.31836V0.859375H33.3105V2.31836H31.541ZM37.6875 10.123C37.0781 10.123 36.5508 9.98633 36.1055 9.71289C35.6641 9.43945 35.3242 9.0625 35.0859 8.58203C34.8477 8.09766 34.7285 7.54492 34.7285 6.92383V6.74805C34.7285 6.12305 34.8496 5.57031 35.0918 5.08984C35.334 4.60938 35.6758 4.23242 36.1172 3.95898C36.5586 3.68164 37.0781 3.54297 37.6758 3.54297C38.2461 3.54297 38.7363 3.63281 39.1465 3.8125C39.5605 3.98828 39.8965 4.19336 40.1543 4.42773L40.1426 6.24414H38.8535L38.625 5.11328C38.5312 5.01953 38.4121 4.94336 38.2676 4.88477C38.123 4.82617 37.9766 4.79688 37.8281 4.79688C37.5156 4.79688 37.2559 4.875 37.0488 5.03125C36.8457 5.1875 36.6934 5.41016 36.5918 5.69922C36.4902 5.98828 36.4395 6.33789 36.4395 6.74805V6.92383C36.4395 7.35742 36.4961 7.71484 36.6094 7.99609C36.7227 8.27344 36.873 8.47852 37.0605 8.61133C37.252 8.74414 37.4648 8.81055 37.6992 8.81055C38 8.81055 38.2402 8.73242 38.4199 8.57617C38.6035 8.41602 38.7285 8.19141 38.7949 7.90234H40.2598L40.2773 7.9375C40.2109 8.38672 40.0781 8.77539 39.8789 9.10352C39.6836 9.43164 39.4062 9.68359 39.0469 9.85938C38.6914 10.0352 38.2383 10.123 37.6875 10.123Z" fill="white"/>
</svg>
